# xmcd CD database file
# Copyright (C) 1993-1996 Ti Kan
#
# Track frame offsets:
#	150
#	13275
#	26072
#	35025
#	51897
#	67047
#	77747
#	89900
#	101750
#	111775
#
# Disc length: 1673 seconds
#
# Revision: 1
# Processed by: cddbd v1.4b41PL1 Copyright (c) Steve Scherf et al.
# Submitted via: CDValet v3.31 - Copyright (c) 1997 Greg Leichner
#
DISCID=8e06870a
DTITLE=Patsy Cline - Faded Love
DYEAR=1900
DGENRE=
TTITLE0=Imagine That
TTITLE1=When You Need A Laugh
TTITLE2=Anytime
TTITLE3=Faded Love
TTITLE4=The Wayward Wind
TTITLE5=Your Cheatin' Heart
TTITLE6=He Called Me Baby
TTITLE7=A Poor Man's Roses (Or A Rich Man's Gold)
TTITLE8=Seven Lonely Days
TTITLE9=You Belong To Me
EXTD=
EXTT0=
EXTT1=
EXTT2=
EXTT3=
EXTT4=
EXTT5=
EXTT6=
EXTT7=
EXTT8=
EXTT9=
PLAYORDER=
